<?xml version="1.0" standalone="no"?>
<!DOCTYPE svg PUBLIC "-//W3C//DTD SVG 20010904//EN"
 "http://www.w3.org/TR/2001/REC-SVG-20010904/DTD/svg10.dtd">
<svg version="1.0" xmlns="http://www.w3.org/2000/svg"
 width="943.000000pt" height="943.000000pt" viewBox="0 0 943.000000 943.000000"
 preserveAspectRatio="xMidYMid meet">
<metadata>
Created by potrace 1.11, written by Peter Selinger 2001-2013
</metadata>
<g transform="translate(0.000000,943.000000) scale(0.100000,-0.100000)"
fill="#000000" stroke="none">
<path d="M4407 8994 c-1 -1 -49 -5 -107 -8 -107 -8 -175 -14 -220 -21 -14 -2
-47 -7 -75 -10 -39 -5 -270 -50 -355 -70 -34 -7 -207 -56 -230 -65 -14 -5 -72
-25 -130 -46 -1120 -391 -2053 -1314 -2431 -2404 -37 -105 -83 -260 -95 -319
-3 -12 -11 -51 -19 -85 -8 -34 -17 -79 -20 -101 -4 -22 -8 -47 -10 -55 -2 -8
-7 -35 -10 -60 -3 -25 -8 -56 -10 -70 -21 -127 -28 -565 -12 -720 5 -41 10
-91 12 -112 2 -20 9 -64 15 -98 6 -34 13 -73 15 -88 2 -15 8 -47 14 -72 5 -25
12 -56 15 -70 2 -14 16 -70 31 -125 27 -101 27 -109 5 -240 -28 -169 -31 -530
-6 -675 3 -14 7 -45 10 -70 31 -241 111 -509 222 -748 19 -41 34 -75 34 -77 0
-23 209 -350 302 -473 95 -125 125 -159 268 -302 174 -175 345 -306 628 -484
108 -67 346 -193 482 -254 305 -137 708 -252 1055 -301 44 -7 94 -14 110 -16
175 -26 660 -25 875 0 19 3 60 7 90 10 30 3 62 8 70 10 8 2 35 6 60 9 25 3 81
13 125 21 44 9 91 19 105 21 66 13 194 46 270 69 47 14 92 27 100 29 8 2 73
25 143 50 350 127 661 294 950 509 136 101 308 247 302 257 -2 4 -30 12 -62
19 -206 44 -454 171 -668 341 -110 88 -305 285 -401 405 -109 138 -384 525
-384 541 0 3 -17 31 -38 62 -37 55 -254 407 -472 767 -224 369 -490 782 -520
805 -3 3 -17 21 -30 40 -28 39 -38 52 -129 159 -73 86 -213 228 -281 284 -85
71 -235 166 -365 230 -130 65 -319 139 -385 151 -19 3 -46 8 -60 11 -113 23
-266 37 -395 38 -74 0 -296 -13 -305 -18 -3 -1 -32 -6 -65 -9 -33 -4 -69 -9
-80 -12 -11 -2 -31 -6 -45 -8 -138 -23 -418 -91 -432 -104 -13 -13 26 -74 64
-102 55 -40 98 -44 203 -21 275 61 482 78 675 58 265 -28 526 -117 757 -257
175 -107 380 -296 537 -498 74 -95 309 -438 369 -538 81 -136 290 -528 431
-809 319 -637 760 -1184 1166 -1447 98 -64 163 -98 275 -144 67 -28 75 -33 50
-35 -16 -1 -43 -3 -60 -4 -303 -21 -1040 -21 -1215 -1 -14 2 -61 7 -105 11
-44 4 -89 9 -100 10 -11 2 -42 6 -70 9 -27 4 -63 9 -78 12 l-28 6 21 33 c34
56 47 84 89 202 42 119 82 209 115 258 79 116 166 187 248 200 44 8 47 22 14
58 -30 32 -62 41 -125 35 -69 -7 -134 -44 -212 -120 -82 -80 -136 -160 -219
-328 -64 -130 -160 -277 -187 -287 -9 -3 -68 6 -132 21 -64 15 -123 29 -131
31 -133 29 -416 123 -610 201 -139 57 -430 194 -430 204 0 3 25 18 57 35 60
31 196 159 304 285 35 41 89 102 120 135 31 33 82 89 115 125 83 92 192 186
289 251 167 112 305 160 455 161 50 0 90 3 91 6 7 56 3 77 -17 97 -42 43 -203
47 -344 9 -115 -31 -170 -56 -362 -171 -75 -45 -224 -166 -353 -287 -304 -284
-469 -400 -637 -446 l-46 -12 -84 58 c-45 32 -87 62 -93 66 -219 172 -297 240
-431 373 -88 88 -184 188 -213 222 l-52 62 114 54 c177 84 294 166 456 321 89
86 81 79 161 146 36 30 87 76 115 102 27 25 64 57 80 70 17 12 39 31 50 41 47
44 248 170 345 216 186 89 366 121 541 98 53 -7 57 -6 63 15 18 70 -3 109 -72
132 -179 59 -393 34 -647 -74 -215 -93 -319 -156 -635 -390 -292 -216 -367
-263 -526 -331 -74 -32 -225 -78 -256 -79 -9 0 -81 129 -151 268 -91 182 -195
452 -242 627 -49 185 -87 360 -100 460 -4 28 -8 61 -11 75 -24 138 -24 679 0
805 2 11 7 49 11 85 3 36 8 72 10 80 2 8 7 31 10 50 3 19 8 46 10 60 3 14 7
34 9 46 2 11 16 70 31 130 14 60 28 116 30 124 2 9 26 85 55 169 350 1038
1149 1844 2183 2200 118 40 293 89 397 110 30 6 66 14 80 16 14 3 40 8 59 11
18 3 43 7 55 10 11 2 48 7 81 10 33 4 63 8 66 10 8 4 220 18 296 18 35 1 64 6
64 11 5 32 4 42 -7 66 -22 44 -75 62 -192 63 -57 1 -104 1 -105 0z m-3390
-5219 c97 -201 195 -368 315 -535 70 -98 85 -130 94 -197 14 -123 7 -206 -32
-376 -30 -133 -35 -156 -37 -180 -1 -18 -2 -18 -15 0 -49 66 -160 279 -215
413 -74 179 -144 413 -162 535 -4 22 -8 47 -10 55 -4 15 -13 72 -21 138 -2 20
-7 107 -9 192 -6 178 -18 184 92 -45z m918 -1208 c28 -25 93 -80 145 -122 52
-42 102 -82 110 -88 8 -7 47 -35 85 -62 39 -27 72 -52 75 -55 5 -6 257 -165
295 -186 33 -19 47 -88 48 -244 0 -80 -2 -161 -6 -180 -14 -70 -19 -227 -8
-265 6 -22 9 -41 7 -43 -10 -9 -285 145 -441 246 -130 85 -314 223 -389 292
-149 138 -307 316 -328 370 -27 68 -5 175 86 420 40 107 51 140 55 170 1 2 49
-43 109 -101 59 -58 130 -126 157 -152z m1110 -722 c235 -109 552 -221 820
-291 17 -4 32 -8 35 -9 90 -24 359 -77 463 -91 27 -4 56 -15 66 -25 20 -22 57
-134 66 -204 13 -101 17 -121 27 -160 5 -22 19 -57 29 -77 l19 -38 -32 -1
c-18 0 -44 -2 -58 -5 -32 -4 -374 -4 -420 1 -19 2 -68 6 -109 9 -41 3 -101 11
-135 17 -34 6 -70 12 -81 14 -24 3 -104 16 -125 21 -8 1 -49 10 -90 19 -172
37 -430 117 -580 179 -67 28 -77 36 -97 74 -29 57 -23 139 24 330 18 76 26
137 27 208 l1 102 35 -18 c19 -10 71 -34 115 -55z m3262 -335 c-291 -184 -887
-400 -1392 -503 -199 -41 -200 -41 -216 -10 -9 16 -14 54 -13 102 2 227 2 268
1 291 -2 19 3 25 16 23 118 -9 288 -15 452 -15 211 1 311 6 530 28 146 14 475
70 605 103 61 16 65 12 17 -19z"/>
<path d="M5108 8686 c-1 -2 -82 -6 -178 -9 -96 -4 -186 -8 -200 -11 -14 -2
-57 -7 -96 -10 -39 -4 -80 -8 -91 -10 -11 -3 -44 -7 -74 -11 -251 -31 -683
-149 -944 -260 -159 -67 -298 -136 -418 -207 -55 -32 -100 -58 -102 -58 -8 0
-232 -155 -295 -204 -90 -69 -213 -172 -258 -216 -17 -17 -18 -17 108 -51 391
-105 760 -389 1107 -851 133 -176 283 -402 492 -743 94 -154 176 -287 181
-295 5 -8 21 -35 36 -60 239 -397 506 -816 602 -944 212 -282 404 -476 598
-602 262 -172 568 -285 834 -311 149 -14 505 -7 580 12 8 2 35 7 60 10 112 15
362 71 501 111 23 6 15 33 -24 79 -34 42 -80 65 -129 65 -18 0 -98 -13 -178
-29 -80 -16 -167 -32 -195 -35 -27 -3 -70 -8 -95 -12 -129 -16 -318 -4 -490
31 -14 3 -38 8 -53 10 -65 12 -275 89 -372 136 -267 130 -477 308 -701 596
-115 147 -331 472 -423 636 -12 20 -29 52 -39 70 -66 117 -185 343 -302 577
-158 314 -359 641 -517 840 -6 8 -33 42 -59 75 -181 228 -400 436 -599 570
-98 65 -263 151 -337 175 -41 13 -48 19 -20 18 9 0 100 3 202 7 355 16 976 10
1135 -9 17 -2 61 -7 98 -11 37 -3 76 -8 85 -10 9 -1 47 -6 83 -10 l66 -7 -39
-76 c-21 -43 -56 -129 -78 -192 -86 -245 -205 -392 -347 -430 -50 -13 -54 -30
-17 -63 76 -66 198 -37 320 76 80 74 145 170 233 344 56 110 171 293 185 293
1 0 42 -9 92 -20 49 -12 100 -23 114 -26 177 -37 585 -174 785 -263 63 -29
315 -154 315 -157 0 -2 -19 -13 -42 -25 -80 -40 -165 -117 -293 -264 -82 -94
-215 -241 -300 -330 -174 -182 -387 -316 -576 -361 -13 -4 -64 -8 -114 -10
-49 -1 -95 -3 -100 -3 -18 -1 -17 -60 1 -90 13 -22 28 -30 69 -38 64 -11 199
-8 257 7 198 51 462 210 674 407 23 21 86 79 140 129 140 130 197 177 294 243
103 71 146 93 240 125 l72 24 99 -69 c254 -175 487 -383 691 -614 l87 -99
-100 -48 c-139 -66 -279 -153 -355 -223 -7 -5 -61 -56 -120 -111 -60 -56 -136
-124 -169 -152 -33 -27 -77 -66 -98 -85 -114 -109 -275 -225 -411 -298 -220
-117 -415 -160 -603 -132 -58 9 -62 8 -67 -11 -31 -113 47 -160 269 -160 66
-1 138 3 160 7 234 46 513 180 778 375 50 37 139 102 197 145 289 216 519 336
693 362 l45 7 32 -53 c57 -99 188 -373 230 -484 23 -60 46 -119 51 -130 55
-129 148 -503 175 -705 3 -25 8 -54 10 -64 23 -123 23 -631 -1 -786 -2 -14 -6
-47 -10 -75 -65 -535 -280 -1101 -583 -1540 -62 -88 -166 -227 -209 -276 -99
-115 -136 -154 -222 -239 -360 -357 -766 -617 -1236 -793 -143 -54 -391 -127
-485 -142 -19 -3 -51 -10 -70 -15 -19 -5 -57 -12 -84 -15 -27 -3 -51 -7 -55
-9 -4 -3 -36 -7 -71 -10 -36 -3 -87 -8 -115 -11 -100 -12 -132 -14 -220 -16
-89 -1 -91 -2 -93 -26 -3 -40 28 -81 76 -99 36 -15 69 -16 220 -11 97 4 188 9
202 11 14 2 54 7 90 11 146 14 379 58 540 101 137 37 343 104 359 118 8 6 16
9 18 8 4 -4 81 25 163 61 475 207 892 490 1256 852 90 89 124 126 240 256 64
72 224 289 296 399 247 381 430 813 514 1215 51 246 68 417 69 685 0 167 -11
384 -19 399 -2 3 -7 37 -11 76 -4 38 -8 72 -10 75 -2 3 -6 26 -10 50 -8 55
-59 278 -77 340 -11 35 -11 56 -2 100 11 54 15 90 30 238 12 122 5 415 -11
514 -2 12 -6 41 -10 63 -32 218 -104 488 -172 645 -9 19 -22 51 -31 70 -61
141 -127 257 -243 430 -277 413 -548 666 -1024 957 -416 253 -925 448 -1355
518 -19 3 -46 8 -60 10 -160 32 -251 42 -460 50 -85 3 -160 8 -167 10 -6 2
-13 2 -15 1z m312 -220 c155 -15 231 -26 360 -51 14 -3 41 -8 60 -11 209 -36
675 -187 726 -235 50 -47 49 -137 -2 -351 -2 -10 -6 -28 -9 -40 -18 -76 -23
-122 -22 -196 1 -45 1 -82 -1 -82 -1 0 -51 23 -110 51 -123 59 -394 169 -414
169 -8 0 -18 4 -23 9 -15 13 -252 86 -425 130 -168 43 -344 80 -470 97 -69 9
-83 13 -90 21 -17 20 -51 122 -61 182 -28 170 -39 219 -53 253 -9 21 -15 41
-14 45 2 4 30 9 63 11 33 2 61 4 62 6 5 5 357 -2 423 -8z m-685 -61 c11 -25
13 -58 9 -127 -9 -143 -9 -179 -1 -231 l7 -47 -98 7 c-53 4 -209 7 -347 7
-215 1 -312 -3 -505 -19 -49 -4 -140 -15 -170 -20 -14 -3 -45 -7 -70 -10 -90
-11 -195 -30 -356 -65 -55 -11 -108 -23 -119 -26 -35 -9 75 57 210 126 314
160 810 326 1225 409 58 11 114 22 125 25 60 12 76 7 90 -29z m2275 -453 c336
-196 582 -392 790 -631 99 -114 104 -124 106 -204 2 -81 -8 -119 -92 -351 -30
-82 -53 -155 -50 -163 11 -26 -9 -11 -84 65 -226 230 -491 441 -785 624 l-139
87 -12 58 c-13 61 -12 324 1 378 10 40 11 223 2 257 l-7 27 87 -46 c49 -25
131 -70 183 -101z m1095 -1053 c70 -110 160 -291 218 -439 41 -103 101 -289
111 -344 2 -12 11 -52 20 -91 18 -82 24 -112 32 -180 3 -27 8 -61 10 -75 2
-14 6 -95 9 -180 4 -123 2 -150 -7 -130 -76 164 -168 346 -216 426 -61 103
-171 275 -182 284 -13 10 -70 99 -79 123 -16 41 -23 89 -24 167 -1 72 9 186
18 212 2 7 7 24 9 38 3 14 15 61 25 105 11 44 20 90 21 103 0 31 6 28 35 -19z"/>
</g>
</svg>
